<?xml version="1.0" standalone="no"?>
<!DOCTYPE svg PUBLIC "-//W3C//DTD SVG 20010904//EN"
 "http://www.w3.org/TR/2001/REC-SVG-20010904/DTD/svg10.dtd">
<svg version="1.0" xmlns="http://www.w3.org/2000/svg"
 width="24.000000pt" height="24.000000pt" viewBox="0 0 24.000000 24.000000"
 preserveAspectRatio="xMidYMid meet">
<metadata>
Created by potrace 1.16, written by Peter Selinger 2001-2019
</metadata>
<g transform="translate(0.000000,24.000000) scale(0.009375,-0.009412)"
fill="#000000" stroke="none">
<path d="M1090 2314 c-30 -7 -64 -15 -76 -18 -81 -17 -237 -87 -324 -146 -82
-56 -198 -167 -261 -249 -69 -92 -158 -277 -175 -365 -2 -12 -10 -50 -17 -86
-16 -76 -15 -305 1 -365 6 -22 13 -52 16 -66 13 -78 84 -238 146 -329 56 -82
167 -198 249 -261 89 -67 275 -158 360 -174 9 -1 36 -9 61 -16 68 -19 322 -21
395 -3 33 8 69 16 80 18 80 15 225 82 330 151 78 51 219 193 274 274 64 94
147 278 156 346 1 11 8 43 15 70 6 28 12 109 12 180 0 72 -6 153 -12 180 -7
28 -14 59 -15 70 -9 68 -92 252 -156 346 -133 196 -412 391 -608 425 -14 3
-44 10 -66 16 -59 17 -319 18 -385 2z m423 -46 c181 -44 337 -129 469 -256
144 -138 242 -304 289 -487 33 -130 33 -370 0 -500 -77 -299 -300 -561 -586
-687 -58 -26 -232 -75 -267 -76 -24 -1 -253 -1 -275 0 -39 1 -222 53 -282 80
-153 68 -331 214 -419 345 -131 195 -180 355 -180 588 0 291 92 518 295 720
130 131 276 215 458 265 90 25 117 28 258 28 124 0 176 -4 240 -20z"/>
<path d="M1180 2199 c0 -54 3 -64 29 -90 35 -34 68 -37 105 -8 24 19 26 27 26
90 l0 69 -30 0 -30 0 0 -66 c0 -56 -2 -65 -17 -62 -14 2 -16 14 -14 66 l2 62
-35 0 -36 0 0 -61z"/>
<path d="M1380 2210 c-6 -21 -12 -57 -14 -80 -3 -36 -1 -41 21 -46 30 -8 36
-2 36 36 0 40 4 38 17 -9 7 -28 17 -41 34 -45 34 -8 56 2 57 28 1 38 8 97 14
117 5 16 1 19 -23 19 -26 0 -31 -4 -37 -37 l-7 -38 -15 45 c-12 39 -18 45 -43
47 -26 2 -31 -2 -40 -37z"/>
<path d="M834 2152 c-15 -10 -24 -51 -12 -58 5 -3 7 -12 4 -19 -2 -7 -1 -30 4
-51 5 -21 7 -40 5 -42 -8 -8 -54 34 -55 49 0 18 -31 49 -49 49 -15 0 -101 -60
-101 -71 0 -4 23 -35 51 -69 l52 -61 20 20 c20 19 20 21 4 39 -23 26 -8 37 17
13 21 -20 21 -19 69 11 33 22 47 38 47 54 0 27 24 38 40 19 9 -11 17 -11 36
-3 14 7 23 17 22 23 -2 6 -27 33 -56 58 -51 45 -75 55 -98 39z"/>
<path d="M1679 2143 c-1 -21 -3 -41 -14 -105 -7 -44 -6 -48 18 -59 20 -9 29
-8 45 2 27 19 114 100 110 103 -2 1 -11 8 -20 15 -15 11 -23 9 -60 -20 -30
-24 -40 -29 -35 -15 16 42 19 67 7 81 -17 21 -50 19 -51 -2z"/>
<path d="M1240 2062 c-249 -17 -476 -145 -609 -341 -61 -90 -104 -185 -118
-260 -2 -14 -8 -44 -13 -66 -12 -52 -12 -188 0 -240 5 -22 11 -52 13 -66 18
-100 83 -224 176 -337 88 -106 301 -231 424 -248 139 -19 174 -21 236 -13 208
26 368 103 496 240 124 132 192 274 216 455 48 352 -184 719 -527 833 -93 30
-218 49 -294 43z m198 -50 c17 -6 32 -9 32 -6 0 6 99 -34 165 -68 237 -120
400 -390 400 -663 0 -276 -159 -537 -405 -666 -69 -37 -123 -57 -168 -65 -15
-3 -43 -9 -62 -14 -46 -11 -247 -5 -282 9 -16 6 -28 9 -28 7 0 -3 -26 5 -57
15 -222 78 -394 250 -470 468 -8 24 -17 56 -20 70 -2 14 -8 44 -13 66 -10 49
-5 218 9 263 5 17 8 32 5 32 -6 0 25 78 62 155 91 188 295 352 488 391 12 3
37 8 56 12 47 11 247 6 288 -6z"/>
<path d="M1082 1975 c-18 -13 -22 -25 -20 -53 2 -21 7 -35 12 -32 10 6 34 -53
35 -87 1 -16 7 -23 21 -23 24 0 24 3 5 65 -8 27 -13 50 -12 51 1 0 18 4 37 7
27 5 31 4 18 -4 -42 -24 2 -100 47 -83 13 5 16 4 11 -4 -5 -8 0 -12 13 -12 25
0 30 32 15 98 -4 18 0 22 20 22 17 0 25 -7 28 -25 3 -13 1 -22 -4 -19 -4 3
-11 -2 -14 -10 -7 -19 52 -78 74 -74 9 2 18 12 20 22 3 14 0 17 -12 13 -22 -9
-20 5 4 26 11 9 20 24 20 32 0 16 35 20 67 8 15 -6 13 -8 -12 -13 -24 -4 -31
-11 -33 -33 -3 -22 4 -36 29 -58 38 -34 45 -35 52 -11 26 80 33 92 51 79 16
-12 16 -15 -8 -57 -18 -32 -22 -48 -14 -57 11 -14 29 -18 26 -5 -3 9 44 92 51
92 3 0 17 -9 31 -20 24 -19 24 -20 4 -20 -30 0 -57 -34 -49 -59 3 -12 11 -21
16 -21 5 0 14 -11 19 -25 9 -23 30 -35 30 -17 1 4 15 24 33 45 l33 38 24 -26
c14 -15 18 -24 9 -20 -20 8 -69 -38 -69 -65 0 -11 9 -29 20 -40 11 -11 20 -27
20 -35 0 -21 4 -19 52 15 47 34 54 36 61 16 4 -10 -11 -25 -43 -45 -35 -22
-48 -35 -44 -46 5 -13 15 -11 60 15 49 28 55 29 60 13 3 -10 12 -33 20 -51 16
-38 18 -66 4 -57 -5 3 -7 11 -4 18 7 20 -20 50 -49 53 -49 5 -81 -75 -33 -84
15 -3 18 0 13 18 -3 13 0 23 9 27 21 8 29 -4 14 -22 -7 -8 -10 -21 -7 -29 4
-9 -2 -17 -14 -21 -10 -4 -19 -13 -19 -22 0 -12 8 -13 43 -7 72 12 72 12 75
-31 2 -32 0 -36 -8 -22 -13 21 -53 22 -69 3 -7 -8 -13 -27 -15 -41 -2 -15 -9
-30 -16 -35 -25 -15 2 -30 56 -30 33 0 54 -4 54 -11 0 -8 6 -7 16 2 25 20 12
197 -20 292 -35 103 -126 244 -187 290 -16 11 -29 30 -29 42 0 11 -11 37 -25
58 -21 31 -32 37 -60 37 -21 0 -37 -6 -43 -16 -7 -13 -13 -14 -29 -5 -29 15
-113 43 -143 47 -14 2 -62 6 -106 8 -53 3 -90 10 -107 20 -38 26 -88 30 -115
11z"/>
<path d="M807 1747 c-60 -61 -91 -101 -117 -154 -28 -59 -39 -73 -58 -73 -24
0 -72 -41 -72 -60 0 -6 12 -23 27 -38 25 -25 26 -30 24 -128 -1 -63 2 -105 9
-109 5 -3 12 0 15 7 4 9 21 13 54 12 40 -2 53 2 71 21 24 26 23 61 -2 57 -9
-1 -18 4 -22 13 -6 16 -41 21 -50 6 -3 -5 -15 -7 -26 -4 -15 4 -20 14 -20 42
1 33 2 34 14 18 15 -20 71 -26 87 -10 15 15 14 70 -1 88 -12 14 -10 15 13 10
21 -6 27 -4 27 9 0 15 -21 28 -82 49 -14 5 -15 10 -5 36 13 35 27 41 27 12 0
-29 24 -43 64 -36 24 5 37 14 42 29 3 11 13 28 21 38 13 14 9 19 -36 43 l-50
28 28 36 c39 48 80 86 87 79 3 -3 -8 -15 -24 -26 -46 -33 -29 -95 27 -95 42 0
60 17 43 43 -19 31 -15 45 8 25 11 -10 26 -15 36 -11 14 5 11 13 -20 50 -21
26 -32 47 -26 51 13 8 3 25 -16 25 -8 0 -51 -37 -97 -83z"/>
<path d="M1177 1727 c-29 -8 -36 -14 -32 -28 4 -13 -3 -22 -23 -33 -26 -14
-32 -14 -42 -1 -13 16 -27 11 -69 -25 -19 -17 -21 -23 -11 -35 18 -22 -21 -64
-53 -58 -18 4 -26 -3 -41 -33 -16 -35 -16 -39 -2 -50 14 -10 14 -16 4 -40 -8
-18 -19 -28 -29 -26 -12 2 -18 -7 -22 -39 -7 -50 -1 -69 22 -69 24 0 27 -58 4
-75 -16 -12 -16 -15 1 -54 16 -34 23 -40 41 -35 16 4 27 -1 39 -17 14 -20 14
-25 1 -39 -13 -15 -12 -20 16 -46 23 -22 29 -35 25 -55 -5 -26 -3 -27 57 -33
93 -9 126 -15 147 -26 24 -13 116 -13 140 0 20 11 49 16 143 26 54 6 57 8 57
35 0 15 5 31 10 34 6 4 10 -10 10 -34 0 -39 -7 -47 -41 -43 -4 1 -53 -14 -109
-33 -56 -19 -119 -35 -140 -35 -20 0 -81 16 -134 35 -53 19 -100 34 -104 34
-40 -6 -52 2 -52 36 0 43 -25 70 -75 79 -46 9 -54 2 -29 -25 13 -15 14 -20 4
-17 -11 2 -15 -13 -18 -73 -3 -92 5 -102 87 -106 87 -3 110 -8 195 -43 93 -38
147 -40 226 -10 30 12 63 23 73 25 9 2 22 7 29 11 6 4 46 8 88 9 110 3 113 6
115 104 1 77 -2 86 -30 82 -5 -1 0 7 13 18 12 11 22 22 22 25 0 9 -46 7 -75
-4 -19 -7 -25 -7 -24 3 1 6 -1 20 -6 30 -10 23 22 59 46 52 14 -5 22 5 38 41
23 52 25 57 13 50 -4 -2 -13 -2 -19 2 -17 11 -4 60 18 65 15 4 19 14 19 51 0
40 -3 48 -24 55 -13 5 -26 20 -29 33 -10 34 -9 38 9 38 17 0 13 22 -13 73 -12
23 -17 26 -29 16 -12 -10 -19 -8 -39 11 -18 17 -22 27 -14 36 23 28 -46 89
-75 65 -24 -20 -78 6 -65 31 8 15 2 19 -43 33 -63 18 -58 19 -58 -5 0 -16 -7
-20 -34 -20 -25 0 -35 5 -39 20 -6 22 -13 23 -70 7z m22 -78 c-7 -4 -17 -5
-21 -3 -14 9 -9 -19 7 -36 13 -14 11 -17 -15 -27 -26 -10 -29 -9 -34 13 -6 23
-26 34 -26 14 0 -5 -7 -7 -15 -4 -8 4 -15 3 -15 -1 0 -14 21 -45 31 -45 6 0 7
5 3 12 -5 7 -3 8 5 3 9 -5 2 -16 -24 -37 -77 -64 -118 -177 -98 -270 11 -50 9
-52 -34 -51 -7 1 -13 -7 -14 -16 0 -12 -2 -12 -9 4 -14 33 -12 49 4 36 18 -15
46 -3 46 19 0 22 -16 35 -25 20 -4 -6 -11 -7 -17 -4 -6 4 -14 0 -19 -7 -13
-21 -11 101 2 142 40 123 103 190 224 240 39 16 71 15 44 -2z m44 14 c-7 -2
-13 -16 -13 -29 0 -18 5 -24 21 -24 16 0 19 4 14 20 -4 12 -2 20 5 20 6 0 8 5
5 10 -3 6 -2 10 4 10 6 0 8 -12 5 -29 -5 -26 -3 -28 20 -28 20 0 26 4 26 23 0
13 -7 25 -17 27 -10 3 3 4 29 1 123 -10 257 -128 282 -249 6 -29 5 -31 -21
-30 -21 0 -28 -5 -28 -20 0 -25 41 -30 55 -6 15 25 12 -65 -4 -126 -17 -65
-55 -133 -74 -133 -11 0 -9 5 6 18 l22 19 -27 12 c-21 10 -28 9 -34 -1 -5 -7
-9 -10 -9 -5 0 4 5 16 11 26 12 17 13 17 31 -1 15 -15 22 -17 34 -7 19 16 18
36 -4 48 -13 7 -22 7 -29 0 -7 -7 -7 3 0 34 9 42 11 44 43 41 29 -2 33 0 30
19 -4 28 -43 36 -48 10 -2 -10 -8 7 -14 37 -10 55 -10 55 15 55 13 0 26 6 28
13 3 6 -1 10 -9 9 -7 -2 -10 -2 -5 0 16 10 6 25 -13 20 -22 -6 -27 12 -8 31
19 19 0 26 -26 8 -18 -11 -27 -13 -32 -4 -11 17 -12 68 -2 68 4 0 8 7 8 16 0
8 -4 12 -10 9 -5 -3 -10 -1 -10 4 0 6 -4 11 -9 11 -12 0 -22 -44 -11 -48 6 -2
10 -8 10 -13 0 -6 -15 1 -33 15 -19 14 -48 31 -66 37 -23 8 -29 14 -20 19 7 5
14 18 16 29 2 17 -2 21 -22 21 -22 0 -25 -4 -21 -25 5 -25 4 -25 -66 -25 -68
0 -70 1 -64 23 3 12 6 28 6 35 0 6 8 12 18 11 10 0 12 -3 5 -6z m95 -85 c85
-21 155 -79 189 -157 33 -77 17 -205 -35 -263 -21 -24 -25 -23 -46 16 -23 43
-47 49 -105 27 l-46 -19 -1 78 c-1 63 1 77 12 73 9 -3 14 2 14 17 l0 23 33
-26 c17 -14 31 -33 31 -41 -2 -13 1 -14 12 -6 8 8 10 19 5 33 -4 12 -11 34
-14 48 -6 24 -4 25 23 21 25 -4 29 -2 24 13 -4 9 -21 23 -38 31 -17 7 -25 13
-18 14 25 0 11 20 -15 20 l-28 1 24 13 c26 14 13 33 -16 22 -9 -4 -20 -1 -24
6 -6 10 -12 7 -24 -10 l-16 -22 -19 22 c-17 20 -19 20 -20 6 0 -20 -11 -23
-26 -8 -7 7 -17 5 -30 -5 -17 -13 -17 -14 -2 -15 9 0 19 -3 21 -7 3 -5 -15 -8
-39 -7 -24 0 -44 -3 -44 -8 0 -4 5 -8 11 -8 5 0 8 -4 5 -9 -3 -4 6 -6 21 -3
18 3 24 1 19 -7 -4 -6 -12 -11 -17 -11 -5 0 -21 -7 -35 -17 -18 -12 -22 -18
-13 -24 7 -4 18 -5 24 -1 5 3 18 8 27 9 14 2 13 -1 -5 -20 -12 -13 -25 -22
-28 -20 -4 1 -9 -4 -13 -12 -3 -8 0 -15 6 -15 7 0 6 -5 -2 -15 -9 -11 -9 -15
-1 -15 6 0 14 7 18 16 3 9 13 14 24 11 10 -3 20 2 23 10 3 8 10 11 16 8 5 -3
10 0 10 7 1 8 7 5 16 -7 12 -17 16 -18 24 -5 6 9 9 -15 9 -68 0 -47 -4 -82
-10 -82 -5 0 -25 7 -45 15 -43 18 -80 6 -94 -29 -12 -33 -25 -39 -42 -18 -55
62 -71 182 -36 265 26 61 105 133 161 147 23 6 47 13 52 15 19 7 46 5 93 -7z
m-135 -391 c21 -8 42 -18 46 -23 5 -5 11 -59 13 -121 l4 -112 -25 13 c-44 23
-158 47 -187 40 -16 -4 -25 -3 -23 3 15 39 116 213 124 213 6 0 27 -6 48 -13z
m255 -74 c78 -139 75 -132 52 -126 -24 6 -168 -24 -195 -41 -20 -13 -20 -11
-20 103 l0 115 45 18 c25 9 50 17 57 17 6 1 34 -38 61 -86z"/>
<path d="M785 860 c-3 -5 -4 -14 -1 -19 3 -4 -3 -16 -14 -26 -11 -10 -20 -24
-20 -31 0 -19 31 -46 46 -40 53 22 51 22 32 -6 -25 -38 -7 -43 27 -8 28 29 29
29 57 12 15 -9 28 -23 28 -30 0 -12 -3 -12 -15 -2 -19 16 -27 8 -27 -26 0 -32
25 -54 60 -54 14 0 30 -8 37 -17 12 -16 15 -14 31 20 16 33 21 36 48 31 38 -6
47 -14 17 -14 -32 0 -39 -29 -11 -52 22 -17 24 -18 42 -2 17 17 18 16 16 -7
-5 -39 26 -30 32 10 5 30 8 34 43 37 20 2 37 -1 37 -6 0 -6 -7 -10 -15 -10
-21 0 -19 -28 3 -33 9 -2 2 -2 -15 0 -37 4 -46 -14 -10 -21 84 -17 106 -16
127 6 20 22 20 22 1 42 -17 16 -24 18 -45 8 -21 -9 -24 -9 -19 4 4 11 17 14
42 12 27 -2 36 1 36 12 0 12 -16 15 -80 16 -44 1 -99 4 -122 7 -45 6 -169 52
-193 72 -8 7 -28 19 -45 28 -16 8 -50 34 -74 56 -50 46 -48 45 -56 31z"/>
<path d="M1695 815 c-27 -24 -85 -61 -127 -82 -72 -36 -99 -63 -61 -63 14 0
15 -2 4 -12 -10 -11 -14 -10 -22 5 -13 22 -55 22 -64 0 -3 -10 -1 -19 4 -21 6
-2 11 -12 11 -23 0 -11 7 -22 16 -26 19 -7 50 10 47 25 -5 20 25 20 30 0 4
-12 10 -17 17 -13 12 7 10 33 -5 68 -5 11 -3 17 7 17 7 0 19 -13 25 -30 6 -16
18 -30 27 -30 20 0 20 1 -1 45 -15 31 -15 37 -3 45 23 15 40 12 34 -5 -4 -8
-10 -12 -15 -9 -5 3 -9 -2 -9 -10 0 -9 7 -16 15 -16 8 0 15 -4 15 -9 0 -13 48
-1 62 17 11 13 9 15 -15 10 -24 -5 -27 -3 -21 14 3 10 1 24 -4 31 -7 9 2 20
32 41 29 21 36 23 22 8 -25 -29 -15 -75 17 -70 12 2 22 10 22 18 0 8 -6 14
-12 13 -16 -4 -17 23 -1 33 6 4 16 0 23 -9 12 -16 45 -24 45 -11 0 3 -11 19
-25 36 -14 16 -25 36 -25 44 0 22 -11 17 -65 -31z"/>
<path d="M1855 2036 c-6 -8 -28 -35 -49 -61 l-40 -46 45 -39 c24 -22 50 -39
57 -40 24 0 25 31 1 58 -18 20 -19 23 -3 9 24 -20 36 -21 52 -5 9 9 6 18 -15
40 -31 33 -20 38 14 6 22 -21 24 -21 41 -4 16 16 15 19 -28 56 -49 43 -60 47
-75 26z"/>
<path d="M541 1924 c-26 -21 -31 -33 -29 -61 2 -30 36 -81 57 -84 50 -8 62 -4
102 38 l42 44 -28 29 c-16 17 -34 30 -41 30 -6 0 -14 7 -18 15 -9 23 -51 18
-85 -11z"/>
<path d="M1948 1884 c-60 -47 -68 -63 -43 -84 13 -10 19 -10 35 5 23 20 26 8
8 -30 -10 -21 -9 -29 6 -43 16 -16 18 -15 42 16 14 17 32 32 39 32 25 0 47 31
40 58 -6 23 -55 92 -65 92 -3 -1 -31 -21 -62 -46z"/>
<path d="M417 1749 c-16 -28 -27 -52 -25 -54 15 -15 134 -75 143 -72 17 7 58
94 52 111 -9 22 -34 20 -42 -3 -3 -11 -13 -25 -22 -33 -14 -11 -14 -9 1 21 15
28 15 35 4 42 -17 11 -38 11 -38 1 0 -5 -7 -17 -15 -28 -15 -19 -15 -19 -8 1
3 11 10 25 15 32 12 16 2 33 -20 33 -10 0 -29 -21 -45 -51z"/>
<path d="M2062 1748 c-7 -7 -12 -21 -12 -32 0 -19 0 -19 -14 -1 -12 16 -16 17
-30 6 -36 -30 3 -121 53 -121 24 0 51 25 52 48 0 11 2 12 6 5 14 -36 59 17 46
54 -17 48 -72 70 -101 41z"/>
<path d="M309 1461 c-1 -12 -2 -27 -3 -33 -1 -7 6 -14 14 -14 8 -1 26 -3 40
-4 21 -1 18 -4 -16 -16 -32 -12 -43 -21 -47 -42 -7 -34 1 -42 45 -46 19 -2 53
-7 75 -11 36 -6 41 -4 46 16 8 31 1 39 -36 40 l-32 0 35 17 c19 9 36 16 36 17
1 0 5 14 8 31 l7 32 -68 12 c-37 6 -76 14 -85 17 -13 3 -18 -2 -19 -16z"/>
<path d="M575 768 c-11 -5 -32 -25 -47 -45 -22 -29 -25 -39 -17 -61 5 -14 17
-31 27 -38 20 -15 72 -18 72 -5 0 5 8 12 18 16 9 3 25 17 36 31 16 23 16 28 4
40 -12 13 -20 10 -58 -20 -58 -46 -74 -27 -23 27 32 32 35 39 23 51 -11 10
-21 11 -35 4z"/>
<path d="M1865 678 c-11 -6 -30 -23 -42 -37 l-22 -26 22 -23 c52 -55 70 -72
77 -72 4 0 23 15 41 33 43 41 45 79 6 113 -31 26 -51 29 -82 12z"/>
<path d="M1761 591 c-12 -8 -13 -14 -3 -36 17 -36 16 -37 -20 -15 -40 24 -42
24 -62 4 -15 -14 -13 -21 17 -75 32 -59 41 -66 65 -50 12 7 11 14 -3 40 l-16
33 30 -23 c27 -20 33 -21 60 -9 28 11 42 30 24 30 -5 0 -21 25 -37 55 -30 58
-33 60 -55 46z"/>
<path d="M789 509 c-28 -57 -29 -63 -14 -78 15 -15 17 -14 35 9 18 23 19 23
14 3 -4 -14 2 -29 16 -43 26 -26 46 -21 41 11 -9 55 -7 62 27 71 17 5 32 15
32 23 0 20 -33 27 -65 15 -24 -9 -26 -8 -21 6 6 17 -9 44 -25 44 -5 0 -23 -28
-40 -61z"/>
<path d="M960 484 c-7 -8 -10 -14 -6 -14 3 0 -3 -22 -13 -48 -20 -50 -18 -64
11 -75 13 -5 19 0 24 18 8 30 20 24 29 -13 5 -23 12 -28 37 -30 18 -2 29 0 26
4 -4 3 0 21 8 40 8 18 17 49 20 69 5 32 3 35 -20 35 -19 0 -26 -7 -32 -32 l-7
-33 -11 39 c-12 44 -46 65 -66 40z"/>
<path d="M1458 463 c-14 -3 -18 -15 -18 -45 0 -54 -16 -37 -19 20 -1 6 -10 12
-20 12 -37 0 -51 -12 -52 -44 l-1 -31 -12 34 c-14 39 -28 48 -44 28 -9 -10 -7
-28 9 -73 25 -72 27 -74 62 -67 21 4 27 11 28 32 0 24 1 25 9 5 19 -49 80 -30
78 25 0 14 2 45 6 69 3 23 2 41 -2 41 -4 -1 -15 -3 -24 -6z"/>
<path d="M1135 425 c-28 -27 -31 -54 -11 -93 12 -23 22 -28 57 -30 53 -4 89
26 89 74 0 66 -87 98 -135 49z"/>
</g>
</svg>
